<svg xmlns="http://www.w3.org/2000/svg" width="1440" height="1024" fill="none"><path d="M0 0h1440v1024H0z"/><g clip-path="url(#a)"><path stroke="#D1E8F7" stroke-miterlimit="10" stroke-width="1.916" d="M681.725 839.623c198.082 0 358.655-160.577 358.655-358.66 0-198.082-160.573-358.659-358.655-358.659-198.082 0-358.66 160.577-358.66 358.659 0 198.083 160.578 358.66 358.66 358.66Z"/><path fill="#FEBB94" d="M389.948 283.002c6.977 0 12.633-5.656 12.633-12.633 0-6.977-5.656-12.632-12.633-12.632-6.976 0-12.632 5.655-12.632 12.632 0 6.977 5.656 12.633 12.632 12.633Z"/><path fill="#5661AE" d="M1040.38 507.255c6.98 0 12.64-5.655 12.64-12.632 0-6.977-5.66-12.633-12.64-12.633-6.97 0-12.63 5.656-12.63 12.633 0 6.977 5.66 12.632 12.63 12.632Z"/><path fill="#1C85E8" d="M696.436 852.255c6.976 0 12.632-5.656 12.632-12.632 0-6.977-5.656-12.633-12.632-12.633-6.977 0-12.633 5.656-12.633 12.633 0 6.976 5.656 12.632 12.633 12.632Z"/><path stroke="#D1E8F7" stroke-miterlimit="10" stroke-width="1.43" d="M690.034 750.876c147.764 0 267.55-119.786 267.55-267.55 0-147.765-119.786-267.551-267.55-267.551-147.765 0-267.551 119.786-267.551 267.551 0 147.764 119.786 267.55 267.551 267.55Z"/><path fill="#FEBB94" d="M952.998 546.643a9.423 9.423 0 0 0 9.423-9.423 9.424 9.424 0 1 0-9.423 9.423Z"/><path fill="#5661AE" d="M441.885 593.296a9.424 9.424 0 1 0 0-18.847 9.424 9.424 0 0 0 0 18.847Z"/><path fill="#1C85E8" d="M570.189 253.289a9.424 9.424 0 1 0 0-18.847 9.424 9.424 0 0 0 0 18.847Z"/><path fill="#1C85E8" d="M829.284 779.603H520.305c-13.405 0-23.227-10.867-21.938-24.272l52.745-548.695c1.288-13.405 13.199-24.272 26.604-24.272h308.979c13.405 0 23.227 10.867 21.938 24.272l-52.745 548.695c-1.288 13.405-13.2 24.272-26.604 24.272Z"/><path fill="url(#b)" d="M807.508 779.603H498.529c-13.404 0-23.226-10.867-21.938-24.272l52.745-548.695c1.289-13.405 13.2-24.272 26.605-24.272H864.92c13.404 0 23.226 10.867 21.938 24.272l-52.745 548.695c-1.289 13.405-13.2 24.272-26.605 24.272Z"/><path fill="#fff" d="M795.799 761.362H513.746c-12.423 0-21.526-10.07-20.332-22.493l49.58-515.771c1.195-12.423 12.233-22.493 24.656-22.493h282.053c12.423 0 21.526 10.07 20.332 22.493l-49.58 515.771c-1.195 12.423-12.233 22.493-24.656 22.493Z"/><path fill="url(#c)" d="m818.418 435.237-302.571-.269a8.69 8.69 0 0 1-8.881-9.579l16.312-181.129a10.77 10.77 0 0 1 10.604-9.562l302.571.269a8.696 8.696 0 0 1 8.881 9.579l-16.312 181.13a10.77 10.77 0 0 1-10.604 9.561Z"/><path fill="url(#d)" d="M808.891 630.406H681.006a6.594 6.594 0 0 1-6.412-4.597 6.584 6.584 0 0 1-.261-2.785l15.528-161.536a8.305 8.305 0 0 1 8.092-7.382h127.886a6.587 6.587 0 0 1 6.672 7.382l-15.528 161.536a8.305 8.305 0 0 1-8.092 7.382Z"/><path stroke="#EF6A77" stroke-miterlimit="10" stroke-width="11.69" d="M778.403 541.294c14.423-13.745 15.992-35.509 3.506-48.609-12.487-13.101-34.3-12.578-48.722 1.167-14.422 13.746-15.992 35.509-3.505 48.61 12.486 13.101 34.299 12.578 48.721-1.168Z"/><path stroke="#fff" stroke-linecap="round" stroke-miterlimit="10" stroke-width="11.69" d="M739.583 549.348c-11.964-5.166-19.547-17.447-18.17-31.775 1.825-18.989 18.698-34.382 37.687-34.382"/><path stroke="#fff" stroke-linecap="round" stroke-miterlimit="10" stroke-width="5.984" d="M736.744 578.904h26.31M733.879 608.701h26.311"/><path stroke="#fff" stroke-linecap="round" stroke-miterlimit="10" stroke-width="5.984" d="M721.296 593.634h54.374" opacity=".4"/><path fill="#FEBB94" d="M652.495 630.406H524.61a6.594 6.594 0 0 1-6.412-4.597 6.584 6.584 0 0 1-.261-2.785l15.528-161.536a8.305 8.305 0 0 1 8.092-7.382h127.886a6.587 6.587 0 0 1 6.672 7.382l-15.528 161.536a8.305 8.305 0 0 1-8.092 7.382Z"/><path stroke="#EF6A77" stroke-miterlimit="10" stroke-width="11.69" d="M622.007 541.294c14.422-13.745 15.991-35.509 3.505-48.609-12.486-13.101-34.3-12.578-48.722 1.167-14.422 13.746-15.991 35.509-3.505 48.61 12.486 13.101 34.3 12.578 48.722-1.168Z"/><path stroke="#fff" stroke-linecap="round" stroke-miterlimit="10" stroke-width="11.69" d="M633.781 517.573c-1.825 18.989-18.698 34.382-37.687 34.382-18.989 0-32.903-15.393-31.077-34.382 1.825-18.989 18.698-34.382 37.687-34.382"/><path stroke="#fff" stroke-linecap="round" stroke-miterlimit="10" stroke-width="5.984" d="M580.348 578.904h26.31M577.483 608.701h26.311"/><path stroke="#fff" stroke-linecap="round" stroke-miterlimit="10" stroke-width="5.984" d="M564.9 593.634h54.374" opacity=".4"/><path fill="url(#e)" d="M798.171 745.944H513.117a6.247 6.247 0 0 1-6.324-6.997l8.507-88.486a7.873 7.873 0 0 1 7.669-6.997h285.053a6.239 6.239 0 0 1 4.757 2.057 6.26 6.26 0 0 1 1.32 2.299c.27.853.354 1.753.247 2.641l-8.506 88.486a7.875 7.875 0 0 1-7.669 6.997Z"/><path stroke="#fff" stroke-linecap="round" stroke-miterlimit="10" stroke-width="11.69" d="m532.968 725.427 4.021-41.832M562.473 696.123l-2.817 29.304M588.199 706.131l-1.855 19.296M618.098 672.724l-5.066 52.703M641.575 706.131l-1.855 19.296M671.251 675.052l-4.843 50.375M695.107 704.511l-2.011 20.916M720.855 714.285l-1.071 11.142M750.493 683.595l-4.021 41.832M778.712 667.667l-5.552 57.76"/><path fill="#FFCCB3" d="m540.355 407.462 16.02 25.095a5.095 5.095 0 0 1-1.518 7.012l-2.589 1.682a21.332 21.332 0 0 1-27.815-4l-21.259-24.791 37.161-4.998Z"/><path fill="#FCBA9F" d="M528.131 417.119s5.932 20.368 17.849 26.902a52.104 52.104 0 0 0 8.877-4.452l-13.363-22.45"/><path fill="#FFCCB3" d="m254.064 508.715 62.925-30.155a35.148 35.148 0 0 0 14.47-12.837l60.788-95.624a35.138 35.138 0 0 1 15.752-13.421l87.553-37.72-18.744 141.749-.33 5.236s-23.157 59.976-79.915 81.765l-90.745 55.503-51.754-94.496Z"/><path fill="#FCBA9F" d="M322.543 475.233s29.766 74.296 74.02 72.475l-28.255 17.282s-95.903-17.79-60.004-82.415l14.239-7.342ZM482 345.191s-30.956 18.758-29.314 62.271l37.175-13.892L482 345.191Z"/><path fill="#FFCCB3" d="m559.764 407.462 16.02 25.095a5.095 5.095 0 0 1-1.518 7.012l-2.589 1.682a21.332 21.332 0 0 1-27.815-4l-21.258-24.791 37.16-4.998Z"/><path fill="#1C85E8" d="m796.596 417.358-302.571-.269a8.697 8.697 0 0 1-8.479-5.934 8.683 8.683 0 0 1-.402-3.645l16.312-181.13a10.77 10.77 0 0 1 10.605-9.562l302.57.27a8.69 8.69 0 0 1 8.882 9.578l-16.312 181.13a10.775 10.775 0 0 1-10.605 9.562Z"/><path stroke="#fff" stroke-linecap="round" stroke-miterlimit="10" stroke-width="7.565" d="M514.058 324.275s27.16-5.493 34.47 7.252c7.309 12.744 13.612 36.678 33.06 33.593 19.448-3.086 34.335-65.66 53.454-65.089 19.12.571 12.379 41.553 33.19 42.125 20.81.572 17.109-22.892 30.979-22.238 16.825.793 10.553 49.413 32.491 49.986 21.938.573 25.518-64.222 58.682-63.085"/><path stroke="#fff" stroke-linecap="round" stroke-miterlimit="10" stroke-width="11.999" d="m529.506 247.154 53.233.047"/><path stroke="#fff" stroke-linecap="round" stroke-miterlimit="10" stroke-width="11.999" d="m527.308 271.556 110.01.098" opacity=".4"/><path fill="#FFCCB3" d="m424.307 416.46 38.814-17.097 39.693-27.095c10.439-7.125 32.239-10.335 40.087-.429 7.983 10.076-.984 30.008-10.666 38.463l-36.683 32.033-19.075 23.608-52.17-49.483Z"/><path stroke="#FF967C" stroke-linecap="round" stroke-width="3" d="M503.194 382.557s5.24 20.206 18.826 23.702l14.41-12.174a13.425 13.425 0 0 0 5.309-9.169 13.414 13.414 0 0 0-3-10.162v0a13.418 13.418 0 0 0-17.109-3.001l-18.436 10.804Z"/><path fill="#1C85E8" d="M319.38 476.062s-7.522 53.795 57.936 84.598c0 0-47.022 43.134-65.151 50.387-18.128 7.252-86.241-66.865-62.015-108.933 6.794-11.797 69.23-26.052 69.23-26.052Z"/><path fill="#FCBA9F" d="M567.401 419.425s-25.513.52-34.394 5.168l-6.41-7.475 39.332.001 1.472 2.306Z"/><path fill="#FEBB94" d="M1037.16 417.358H855.755c-13.665 0-23.762-11.078-22.552-24.743l24.339-274.873C858.752 104.078 870.81 93 884.475 93h181.405c13.67 0 23.76 11.078 22.55 24.742l-24.34 274.873c-1.21 13.665-13.27 24.743-26.93 24.743Z"/><path fill="#fff" d="M1011.19 248.209c28.73-27.481 31.62-71.072 6.47-97.363-25.153-26.291-68.829-25.327-97.554 2.154-28.724 27.481-31.62 71.072-6.467 97.363 25.153 26.292 68.83 25.327 97.551-2.154Z"/><path fill="url(#f)" d="m969.493 202.744 45.537 41.532s10.36-11.135 13.45-19.093l-58.987-22.439Z"/><path fill="#1C85E8" d="m972.525 122.963-6.471 73.077a6.86 6.86 0 0 0 3.439 6.704l61.787 34.398s36.69-102.359-58.755-114.179Z"/><path stroke="#fff" stroke-linecap="round" stroke-miterlimit="10" stroke-width="12" d="M875.814 320.069h75.152M870.313 382.201h75.152"/><path stroke="#fff" stroke-linecap="round" stroke-miterlimit="10" stroke-width="12" d="M873.095 350.784H1028.4" opacity=".4"/><path fill="#FFCCB3" d="M814.065 619.855s24.225-6.461 37.118 7.422c0 0 23.174-4.208 32.596 8.684 0 0 20.545 1.19 26.495 9.57a28.267 28.267 0 0 1 22.392 17.526c5.618 13.241.853 89.792-4.731 117.223a38.96 38.96 0 0 0 1.385 20.583l14.204 40.819-98.277 41.083-23.332-60.856s-28.401-45.641-32.459-53.756c-4.057-8.114 2.82-75.447-11.031-117.51l35.64-30.788Z"/><path fill="#FCBA9F" d="m834.591 854.971-2.835-7.395s50.995-3.26 97.564-46.713l4.454 12.8s-5.752 26.44-31.94 38.901c-26.189 12.462-67.243 2.407-67.243 2.407Z"/><path fill="#5661AE" d="M834.591 854.971s61.727 5.622 99.183-41.308c0 0 13.829 7.25 35.064 60.331 6.522 16.304-102.387 74.351-119.996 50.222 0 0-15.202-32.157-14.251-69.245Z"/><path fill="#FFCCB3" d="M784.465 676.035s-2.129 11.296-12.196 11.297c-6.568 0-35.037-8.601-54.039-14.581a26.462 26.462 0 0 0-28.908 9.097l-1.155 1.5a6.93 6.93 0 0 0-1.365 5.289 6.935 6.935 0 0 0 2.886 4.638c16.087 11.231 59.528 41.713 65.084 47.269 6.838 6.837 44.913 45.169 44.913 45.169l-15.22-109.678Z"/><path fill="#FCBA9F" d="M782.154 664.717s20.577 27.852 17.531 33.949c-3.046 6.097-34.953-12.544-34.953-12.544s25.747 6.623 17.422-21.405Z"/><path fill="#FFCCB3" d="M778.425 650.643 743.8 545.495a28.376 28.376 0 0 1 1.816-22.032 28.367 28.367 0 0 1 17.078-14.037 12.74 12.74 0 0 1 15.292 7.133l48.575 111.659-48.136 22.425Z"/><path stroke="#FF967C" stroke-linecap="round" stroke-width="3" d="M763.41 605.045a13.694 13.694 0 0 0 8.975 6.302M775.868 551.217c4.213-1.867 8.86-4.476 10.859-7.521l-12.893-30.613a5.04 5.04 0 0 0-5.139-3.074 5.047 5.047 0 0 0-2.021.643c-4.588 2.648-10.644 7.426-10.879 14.286l8.72 21.7a8.505 8.505 0 0 0 8.041 5.318 8.505 8.505 0 0 0 3.312-.739ZM822.654 619.236l11.937 26.295M851.66 627.815a51.797 51.797 0 0 1 9.314 29.649M884.349 636.453s6.009 13.781 6.505 24.679M911.115 646.349a38.725 38.725 0 0 1 2.674 18.368M715.113 706.131s7.11-9.03 4.671-13.559-13.288-10.934-19.558-10.237a25.3 25.3 0 0 0-8.523 2.904 3.118 3.118 0 0 0-1.331 4.171c.247.484.615.895 1.069 1.192l23.672 15.529Z"/><path fill="#FEBB94" d="M592.842 816.234H376.227a6.255 6.255 0 0 1-4.757-2.057 6.235 6.235 0 0 1-1.567-4.94l8.506-88.487a7.87 7.87 0 0 1 7.669-6.996h216.616a6.242 6.242 0 0 1 6.324 6.996l-8.506 88.487a7.876 7.876 0 0 1-7.67 6.997Z"/><path stroke="#EF6A77" stroke-linecap="round" stroke-miterlimit="10" stroke-width="11.69" d="M396.563 736.83h133.683"/><path stroke="#fff" stroke-linecap="round" stroke-miterlimit="10" stroke-width="11.69" d="M396.563 736.83h92.897"/><path stroke="#EF6A77" stroke-linecap="round" stroke-miterlimit="10" stroke-width="11.69" d="M394.563 764.994h133.683"/><path stroke="#fff" stroke-linecap="round" stroke-miterlimit="10" stroke-width="11.69" d="M394.563 764.994h55.54"/><path stroke="#EF6A77" stroke-linecap="round" stroke-miterlimit="10" stroke-width="11.69" d="M390.192 793.158h133.683"/><path stroke="#fff" stroke-linecap="round" stroke-miterlimit="10" stroke-width="11.69" d="M390.192 793.158h33.965"/><path fill="#fff" d="M577.567 744.817a7.987 7.987 0 1 0 0-15.975 7.987 7.987 0 0 0 0 15.975ZM574.977 771.749a7.987 7.987 0 1 0 0-15.975 7.988 7.988 0 1 0 0 15.975ZM572.086 801.146a7.989 7.989 0 1 0-.002-15.978 7.989 7.989 0 0 0 .002 15.978Z"/></g><defs><linearGradient id="b" x1="634.203" x2="918.04" y1="-7.664" y2="1414.72" gradientUnits="userSpaceOnUse"><stop stop-color="#fff"/><stop offset="1" stop-color="#94B9FF"/></linearGradient><linearGradient id="c" x1="667.724" x2="695.245" y1="234.221" y2="662.637" gradientUnits="userSpaceOnUse"><stop stop-color="#fff"/><stop offset="1" stop-color="#94B9FF"/></linearGradient><linearGradient id="d" x1="749.482" x2="794.499" y1="453.685" y2="826.442" gradientUnits="userSpaceOnUse"><stop stop-color="#fff"/><stop offset="1" stop-color="#94B9FF"/></linearGradient><linearGradient id="e" x1="652.911" x2="660.84" y1="643.219" y2="862.771" gradientUnits="userSpaceOnUse"><stop stop-color="#fff"/><stop offset="1" stop-color="#94B9FF"/></linearGradient><linearGradient id="f" x1="997.516" x2="1004.28" y1="202.645" y2="291.221" gradientUnits="userSpaceOnUse"><stop stop-color="#fff"/><stop offset="1" stop-color="#94B9FF"/></linearGradient><clipPath id="a"><path fill="#fff" d="M245 93h843.53v837.007H245z"/></clipPath></defs></svg>